<svg xmlns="http://www.w3.org/2000/svg" xml:space="preserve" width="700" height="280" viewBox="0 0 700 280">
  <rect width="700" height="280" fill="#fbf9f4"/>
  <defs>
    <marker id="f" markerWidth="10" markerHeight="10" refX="8" refY="5" orient="auto">
      <path d="M0,0 L10,5 L0,10 z" fill="#14213d"/>
    </marker>
    <marker id="g" markerWidth="10" markerHeight="10" refX="8" refY="5" orient="auto">
      <path d="M0,0 L10,5 L0,10 z" fill="#b08d57"/>
    </marker>
  </defs>
  <text x="350" y="30" font-family="Georgia, serif" font-size="16" fill="#14213d" text-anchor="middle">Compilación</text>
  <rect x="30" y="50" width="170" height="100" fill="white" stroke="#14213d" stroke-width="2"/>
  <text x="115" y="75" font-family="Arial, sans-serif" font-size="13" fill="#b08d57" text-anchor="middle">CÓDIGO FUENTE</text>
  <text x="45" y="102" font-family="monospace" font-size="12" fill="#14213d">int main() {</text>
  <text x="45" y="118" font-family="monospace" font-size="12" fill="#14213d">  saludar();</text>
  <text x="45" y="134" font-family="monospace" font-size="12" fill="#14213d">}</text>
  <rect x="265" y="50" width="170" height="100" fill="#14213d"/>
  <text x="350" y="95" font-family="Arial, sans-serif" font-size="13" fill="#b08d57" text-anchor="middle">COMPILADOR</text>
  <text x="350" y="118" font-family="monospace" font-size="12" fill="white" text-anchor="middle">gcc / clang / MSVC</text>
  <rect x="500" y="50" width="170" height="100" fill="white" stroke="#14213d" stroke-width="2"/>
  <text x="585" y="75" font-family="Arial, sans-serif" font-size="13" fill="#b08d57" text-anchor="middle">BINARIO</text>
  <text x="515" y="102" font-family="monospace" font-size="12" fill="#14213d">7F 45 4C 46 02 01</text>
  <text x="515" y="118" font-family="monospace" font-size="12" fill="#14213d">01 00 00 00 00 00</text>
  <text x="515" y="134" font-family="monospace" font-size="12" fill="#14213d">55 48 89 E5 E8 00</text>
  <line x1="200" y1="100" x2="260" y2="100" stroke="#14213d" stroke-width="2" marker-end="url(#f)"/>
  <line x1="435" y1="100" x2="495" y2="100" stroke="#14213d" stroke-width="2" marker-end="url(#f)"/>
  <path d="M585,152 C585,240 115,240 115,156" fill="none" stroke="#b08d57" stroke-width="3" stroke-dasharray="8,6" marker-end="url(#g)"/>
  <text x="350" y="262" font-family="Georgia, serif" font-size="16" font-style="italic" fill="#b08d57" text-anchor="middle">Ingeniería inversa</text>
</svg>
