<svg xmlns="http://www.w3.org/2000/svg" xml:space="preserve" width="700" height="280" viewBox="0 0 700 280">
  <rect width="700" height="280" fill="#fbf9f4"/>
  <rect x="200" y="20" width="300" height="140" fill="#14213d"/>
  <rect x="200" y="160" width="300" height="6" fill="#b08d57"/>
  <text x="350" y="55" font-family="Georgia, serif" font-size="18" fill="white" text-anchor="middle">Taller de ingeniería inversa</text>
  <g font-family="monospace" font-size="12" fill="#b08d57">
    <text x="225" y="90">call  strcmp</text>
    <text x="225" y="110">test  eax, eax</text>
    <text x="225" y="130">jne   .fallo</text>
  </g>
  <g fill="#14213d">
    <rect x="75" y="195" width="110" height="65" rx="4"/>
    <rect x="60" y="260" width="140" height="8"/>
    <rect x="295" y="195" width="110" height="65" rx="4"/>
    <rect x="280" y="260" width="140" height="8"/>
    <rect x="515" y="195" width="110" height="65" rx="4"/>
    <rect x="500" y="260" width="140" height="8"/>
  </g>
  <g fill="#b08d57">
    <rect x="85" y="207" width="90" height="4"/>
    <rect x="85" y="218" width="60" height="4"/>
    <rect x="85" y="229" width="75" height="4"/>
    <rect x="305" y="207" width="90" height="4"/>
    <rect x="305" y="218" width="50" height="4"/>
    <rect x="305" y="229" width="80" height="4"/>
    <rect x="525" y="207" width="90" height="4"/>
    <rect x="525" y="218" width="70" height="4"/>
    <rect x="525" y="229" width="40" height="4"/>
  </g>
</svg>
